<mxfile host="app.diagrams.net" modified="2022-04-13T13:47:46.051Z" agent="5.0 (Windows)" etag="gSDjRqeqdy9iadRS6kZf" version="17.4.2" type="github">
  <diagram id="eZvFlOBHCZorBKaV18Hf" name="Page-1">
    <mxGraphModel dx="1678" dy="856" grid="1" gridSize="10" guides="1" tooltips="1" connect="1" arrows="1" fold="1" page="1" pageScale="1" pageWidth="850" pageHeight="1100" math="0" shadow="0">
      <root>
        <mxCell id="0" />
        <mxCell id="1" parent="0" />
        <mxCell id="zpLexZXmEPBX48ddrCjN-13" style="edgeStyle=orthogonalEdgeStyle;rounded=0;orthogonalLoop=1;jettySize=auto;html=1;entryX=0.5;entryY=1;entryDx=0;entryDy=0;entryPerimeter=0;startArrow=classic;startFill=1;" edge="1" parent="1" source="zpLexZXmEPBX48ddrCjN-1" target="zpLexZXmEPBX48ddrCjN-2">
          <mxGeometry relative="1" as="geometry" />
        </mxCell>
        <mxCell id="zpLexZXmEPBX48ddrCjN-1" value="&lt;div&gt;Reverse proxy / Load balancer&lt;br&gt;&lt;/div&gt;" style="sketch=0;pointerEvents=1;shadow=0;dashed=0;html=1;strokeColor=none;fillColor=#505050;labelPosition=center;verticalLabelPosition=bottom;verticalAlign=top;outlineConnect=0;align=center;shape=mxgraph.office.servers.reverse_proxy;" vertex="1" parent="1">
          <mxGeometry x="340.75" y="170" width="41" height="53" as="geometry" />
        </mxCell>
        <mxCell id="zpLexZXmEPBX48ddrCjN-2" value="&lt;div&gt;internet&lt;/div&gt;&lt;div&gt;&lt;br&gt;&lt;/div&gt;" style="outlineConnect=0;dashed=0;verticalLabelPosition=bottom;verticalAlign=top;align=center;html=1;shape=mxgraph.aws3.internet_2;fillColor=#D2D3D3;gradientColor=none;" vertex="1" parent="1">
          <mxGeometry x="321.5" y="40" width="79.5" height="54" as="geometry" />
        </mxCell>
        <mxCell id="zpLexZXmEPBX48ddrCjN-3" value="Site A" style="rounded=1;whiteSpace=wrap;html=1;labelPosition=center;verticalLabelPosition=bottom;align=center;verticalAlign=top;" vertex="1" parent="1">
          <mxGeometry x="200" y="300" width="120" height="270" as="geometry" />
        </mxCell>
        <mxCell id="zpLexZXmEPBX48ddrCjN-4" value="&lt;div&gt;Storage&lt;/div&gt;" style="fontColor=#0066CC;verticalAlign=top;verticalLabelPosition=bottom;labelPosition=center;align=center;html=1;outlineConnect=0;fillColor=#CCCCCC;strokeColor=#6881B3;gradientColor=none;gradientDirection=north;strokeWidth=2;shape=mxgraph.networks.storage;" vertex="1" parent="1">
          <mxGeometry x="235" y="470" width="50" height="40" as="geometry" />
        </mxCell>
        <mxCell id="zpLexZXmEPBX48ddrCjN-14" value="" style="edgeStyle=orthogonalEdgeStyle;rounded=0;orthogonalLoop=1;jettySize=auto;html=1;startArrow=classic;startFill=1;" edge="1" parent="1" source="zpLexZXmEPBX48ddrCjN-6" target="zpLexZXmEPBX48ddrCjN-4">
          <mxGeometry relative="1" as="geometry" />
        </mxCell>
        <mxCell id="zpLexZXmEPBX48ddrCjN-6" value="&lt;div&gt;mLogistic&lt;/div&gt;&lt;div&gt;cluster&lt;/div&gt;&lt;div&gt;&lt;br&gt;&lt;/div&gt;" style="sketch=0;html=1;dashed=0;whitespace=wrap;fillColor=#2875E2;strokeColor=#ffffff;points=[[0.005,0.63,0],[0.1,0.2,0],[0.9,0.2,0],[0.5,0,0],[0.995,0.63,0],[0.72,0.99,0],[0.5,1,0],[0.28,0.99,0]];shape=mxgraph.kubernetes.icon;prIcon=pod;labelPosition=center;verticalLabelPosition=bottom;align=center;verticalAlign=top;" vertex="1" parent="1">
          <mxGeometry x="235" y="350" width="50" height="48" as="geometry" />
        </mxCell>
        <mxCell id="zpLexZXmEPBX48ddrCjN-8" value="Site B" style="rounded=1;whiteSpace=wrap;html=1;labelPosition=center;verticalLabelPosition=bottom;align=center;verticalAlign=top;" vertex="1" parent="1">
          <mxGeometry x="401" y="300" width="120" height="270" as="geometry" />
        </mxCell>
        <mxCell id="zpLexZXmEPBX48ddrCjN-9" value="&lt;div&gt;Storage&lt;/div&gt;" style="fontColor=#0066CC;verticalAlign=top;verticalLabelPosition=bottom;labelPosition=center;align=center;html=1;outlineConnect=0;fillColor=#CCCCCC;strokeColor=#6881B3;gradientColor=none;gradientDirection=north;strokeWidth=2;shape=mxgraph.networks.storage;" vertex="1" parent="1">
          <mxGeometry x="436" y="470" width="50" height="40" as="geometry" />
        </mxCell>
        <mxCell id="zpLexZXmEPBX48ddrCjN-16" style="edgeStyle=orthogonalEdgeStyle;rounded=0;orthogonalLoop=1;jettySize=auto;html=1;startArrow=classic;startFill=1;" edge="1" parent="1" source="zpLexZXmEPBX48ddrCjN-10" target="zpLexZXmEPBX48ddrCjN-9">
          <mxGeometry relative="1" as="geometry" />
        </mxCell>
        <mxCell id="zpLexZXmEPBX48ddrCjN-17" style="edgeStyle=orthogonalEdgeStyle;rounded=0;orthogonalLoop=1;jettySize=auto;html=1;entryX=1;entryY=0.5;entryDx=0;entryDy=0;entryPerimeter=0;startArrow=classic;startFill=1;" edge="1" parent="1" source="zpLexZXmEPBX48ddrCjN-10" target="zpLexZXmEPBX48ddrCjN-4">
          <mxGeometry relative="1" as="geometry" />
        </mxCell>
        <mxCell id="zpLexZXmEPBX48ddrCjN-10" value="&lt;div&gt;mLogistic&lt;/div&gt;&lt;div&gt;cluster&lt;/div&gt;" style="sketch=0;html=1;dashed=0;whitespace=wrap;fillColor=#2875E2;strokeColor=#ffffff;points=[[0.005,0.63,0],[0.1,0.2,0],[0.9,0.2,0],[0.5,0,0],[0.995,0.63,0],[0.72,0.99,0],[0.5,1,0],[0.28,0.99,0]];shape=mxgraph.kubernetes.icon;prIcon=pod;labelPosition=center;verticalLabelPosition=bottom;align=center;verticalAlign=top;" vertex="1" parent="1">
          <mxGeometry x="436" y="350" width="50" height="48" as="geometry" />
        </mxCell>
        <mxCell id="zpLexZXmEPBX48ddrCjN-11" style="edgeStyle=orthogonalEdgeStyle;rounded=0;orthogonalLoop=1;jettySize=auto;html=1;entryX=0.5;entryY=0;entryDx=0;entryDy=0;entryPerimeter=0;startArrow=classic;startFill=1;" edge="1" parent="1" source="zpLexZXmEPBX48ddrCjN-1" target="zpLexZXmEPBX48ddrCjN-6">
          <mxGeometry relative="1" as="geometry" />
        </mxCell>
        <mxCell id="zpLexZXmEPBX48ddrCjN-12" style="edgeStyle=orthogonalEdgeStyle;rounded=0;orthogonalLoop=1;jettySize=auto;html=1;entryX=0.5;entryY=0;entryDx=0;entryDy=0;entryPerimeter=0;startArrow=classic;startFill=1;" edge="1" parent="1" source="zpLexZXmEPBX48ddrCjN-1" target="zpLexZXmEPBX48ddrCjN-10">
          <mxGeometry relative="1" as="geometry" />
        </mxCell>
        <mxCell id="zpLexZXmEPBX48ddrCjN-15" style="edgeStyle=orthogonalEdgeStyle;rounded=0;orthogonalLoop=1;jettySize=auto;html=1;entryX=0;entryY=0.5;entryDx=0;entryDy=0;entryPerimeter=0;startArrow=classic;startFill=1;" edge="1" parent="1" source="zpLexZXmEPBX48ddrCjN-6" target="zpLexZXmEPBX48ddrCjN-9">
          <mxGeometry relative="1" as="geometry" />
        </mxCell>
      </root>
    </mxGraphModel>
  </diagram>
</mxfile>
